<svg xmlns:dc="http://purl.org/dc/elements/1.1/" xmlns:cc="http://creativecommons.org/ns#" xmlns:rdf="http://www.w3.org/1999/02/22-rdf-syntax-ns#" xmlns:svg="http://www.w3.org/2000/svg" xmlns="http://www.w3.org/2000/svg" xmlns:sodipodi="http://sodipodi.sourceforge.net/DTD/sodipodi-0.dtd" xmlns:inkscape="http://www.inkscape.org/namespaces/inkscape" version="1.1" x="0px" y="0px" viewBox="0 0 100 125"><g transform="translate(0,-952.36218)"><path style="text-indent:0;text-transform:none;direction:ltr;block-progression:tb;baseline-shift:baseline;color:#000000;enable-background:accumulate;" d="m 47.715676,969.03237 c -1.07184,4.19662 1.76453,8.65539 6.33614,9.94051 4.57161,1.28511 9.16586,-1.08623 10.2377,-5.28285 1.07185,-4.19662 -1.76453,-8.65539 -6.33614,-9.9405 -4.76265,-1.43768 -9.17154,1.30545 -10.2377,5.28284 z m 9.76951,-3.43854 c 3.48246,0.97895 5.6232,4.33677 4.80673,7.53353 -0.81648,3.19676 -4.25824,4.98016 -7.7407,4.00121 -3.48247,-0.97895 -5.65441,-4.33677 -4.83794,-7.53353 1.04588,-3.51402 4.58387,-4.58564 7.77191,-4.00121 z m -34.42738,9.47162 c -0.52295,5e-5 -0.99875,0.47656 -0.9988,1.0003 l 0.0624,24.56995 c 0.006,2.3853 1.91979,3.7555 3.9952,3.9074 2.17067,-0.071 3.90293,-1.9863 3.9952,-4.0325 l 0.93637,-16.12984 c 1.40951,0.18132 3.30604,0.794 4.83794,1.46919 l -2.77791,16.50495 c -0.0717,0.5485 0.25069,0.8594 0.68667,1.2504 -5.0089,9.997 -10.35256,19.884 -15.29407,29.884 -1.2241,3.4454 -0.12905,6.1489 2.46574,7.3772 2.64505,1.2022 5.74377,0.1516 7.17887,-2.4382 1.10476,-1.9636 2.2395,-4.0395 3.18362,-5.7517 1.87444,1.8427 5.11703,2.1471 7.14766,1.3129 7.69473,-4.2471 15.47323,-8.6078 22.03593,-12.285 1.27588,-0.6673 2.18856,-1.8968 2.497,-3.3135 0.31166,-1.4315 -0.0493,-3.0892 -1.27972,-4.3451 l -10.42497,-10.6594 2.90276,-5.1578 7.02281,9.0027 c 0.32674,0.4094 0.99608,0.4839 1.40457,0.1563 5.65608,-4.4211 11.33285,-8.8267 16.97954,-13.25399 1.05677,-0.88921 1.86403,-1.79807 2.21609,-2.87587 0.35206,-1.0778 0.14544,-2.26872 -0.53061,-3.3135 -0.8454,-1.01003 -2.04552,-1.54079 -3.1212,-1.50046 -1.04694,0.0584 -1.97925,0.49848 -2.7467,1.00031 -3.70008,2.79992 -7.39126,5.64531 -11.08044,8.47131 l -6.42974,-12.15993 c -0.0664,-0.13369 -0.16322,-0.25215 -0.28091,-0.34385 -4.14777,-3.05112 -10.15933,-6.22826 -15.38776,-8.50257 -0.12753,-0.0665 -0.25239,-0.0421 -0.37455,-0.0625 -6.7918,-0.63755 -11.7684,-0.034 -18.82099,0.21881 z m 18.60265,1.78178 c 5.0064,2.19069 10.72038,5.20641 14.60745,8.03368 l 6.86674,13.03519 c 0.27491,0.51275 1.04172,0.67274 1.4982,0.3126 l 11.89196,-9.0965 c 0.59522,-0.3892 1.23977,-0.65939 1.7479,-0.68771 0.48527,-0.027 0.87449,0.0833 1.34214,0.62519 0.416,0.65599 0.47941,1.05086 0.31213,1.56297 -0.16754,0.51291 -0.68364,1.1916 -1.56063,1.93809 -5.60981,4.39582 -11.34185,8.86216 -16.16802,12.62886 l -7.36615,-9.37788 c -0.40329,-0.51371 -1.33252,-0.44347 -1.65426,0.12504 l -3.9952,7.12714 c -0.20916,0.3735 -0.14243,0.8813 0.15606,1.1879 l 10.9868,11.1908 c 0.76416,0.78 0.90487,1.642 0.71789,2.5008 -0.18699,0.8588 -0.76969,1.6447 -1.46699,2.0006 -7.27671,4.0779 -14.58603,8.1318 -21.87991,12.1912 -1.63138,0.7112 -3.56777,0.4906 -4.80672,-0.7503 -1.20631,-1.4946 -1.39893,-3.482 -0.0936,-4.7201 l 16.79232,-10.0656 c 0.52035,-0.3314 0.58724,-1.1856 0.12485,-1.5942 l -14.54502,-12.8789 2.80912,-16.75504 c 0.0675,-0.42469 -0.17316,-0.88 -0.56182,-1.06282 -1.86314,-0.87796 -4.89943,-2.29117 -7.36615,-2.12564 -0.48165,0.0294 -0.90706,0.45541 -0.93637,0.93778 l -0.9988,17.31772 c -0.12583,1.1446 -0.78478,2.0249 -1.93518,2.0944 -1.18616,-0.096 -2.00011,-1.0665 -2.06002,-1.9693 l -0.0626,-23.56967 c 5.90398,-0.24483 11.8168,-0.76334 17.60385,-0.1563 z m -6.33614,28.10227 6.05523,5.3453 -7.30373,13.2853 c -0.89538,0.5249 -1.83957,1.0983 -2.68427,1.6567 -1.5286,1.6765 -1.64248,3.3838 -1.15486,5.3141 l -3.80793,6.9084 c -0.9532,1.7511 -2.7888,2.3627 -4.52581,1.6255 -1.65357,-1.0503 -2.26824,-3.0489 -1.56062,-4.814 4.966,-9.7712 9.98518,-19.5525 14.98199,-29.3213 z m 7.58464,6.6895 4.4946,3.9699 -9.95679,5.9393 z" fill="#000000" fill-opacity="1" stroke="none" marker="none" visibility="visible" display="inline" overflow="visible"/></g></svg>